<mxfile host="app.diagrams.net" modified="2024-04-01T17:35:05.749Z" agent="Mozilla/5.0 (Macintosh; Intel Mac OS X 10_15_7) AppleWebKit/537.36 (KHTML, like Gecko) Chrome/123.0.0.0 Safari/537.36" version="24.2.1" etag="BwNm_tMK3UAETqErlVER" type="github">
  <diagram name="Page-1" id="cLrbQP5OGy0xb9z-wWyf">
    <mxGraphModel>
      <root>
        <mxCell id="0" />
        <mxCell id="1" parent="0" />
      </root>
    </mxGraphModel>
  </diagram>
</mxfile>
